<?xml version="1.0" standalone="no"?>
<!DOCTYPE svg PUBLIC "-//W3C//DTD SVG 20010904//EN"
 "http://www.w3.org/TR/2001/REC-SVG-20010904/DTD/svg10.dtd">
<svg version="1.0" xmlns="http://www.w3.org/2000/svg"
 width="1200.000000pt" height="1200.000000pt" viewBox="0 0 1200.000000 1200.000000"
 preserveAspectRatio="xMidYMid meet">

<g transform="translate(0.000000,1200.000000) scale(0.100000,-0.100000)"
fill="#000000" stroke="none">
<path d="M4665 5111 c-94 -23 -146 -109 -191 -321 -15 -69 -19 -129 -19 -315
0 -226 1 -231 28 -309 35 -100 68 -155 118 -201 71 -64 136 -73 190 -28 37 31
129 167 130 192 0 9 9 -8 19 -36 28 -80 51 -112 100 -141 38 -22 57 -26 120
-26 151 -1 213 71 365 418 50 114 95 186 115 186 5 0 14 -19 21 -42 6 -24 24
-83 40 -132 16 -49 29 -98 29 -110 0 -27 -121 -171 -161 -191 -28 -15 -32 -15
-65 5 -40 26 -64 20 -64 -13 0 -41 58 -77 124 -77 69 0 99 12 158 61 26 21 50
39 55 39 5 0 21 -25 36 -55 34 -70 90 -132 128 -140 17 -4 50 0 82 11 69 23
153 108 272 276 81 116 171 286 163 310 -5 14 -108 -107 -147 -173 -50 -84
-202 -262 -233 -273 -41 -14 -60 9 -98 120 l-33 95 30 37 c41 52 119 175 128
201 4 12 21 47 38 77 33 57 59 68 65 26 6 -43 42 -15 42 33 0 98 -124 60 -269
-82 -46 -46 -87 -80 -92 -78 -4 3 -12 28 -18 57 -16 70 -48 124 -87 143 -41
19 -67 19 -110 -1 -63 -30 -118 -106 -208 -287 -121 -241 -216 -361 -274 -343
-21 7 -52 56 -52 83 0 11 22 48 49 84 81 105 118 229 91 305 -22 63 -109 91
-184 60 -70 -29 -112 -80 -151 -184 -47 -121 -118 -262 -151 -297 -24 -26 -26
-26 -44 -10 -25 23 -64 124 -85 220 l-17 81 27 53 c38 76 102 336 110 453 9
119 1 175 -28 210 -26 31 -50 38 -92 29z m51 -257 c-6 -108 -42 -283 -66 -321
-28 -45 13 407 43 462 10 18 10 18 20 -5 5 -14 6 -74 3 -136z m484 -363 c26
-49 1 -154 -51 -219 l-22 -27 6 108 c3 75 10 115 21 132 20 30 32 31 46 6z"/>
<path d="M8413 5080 c-81 -33 -200 -38 -430 -19 -170 14 -233 6 -233 -31 0
-15 10 -20 48 -25 26 -4 63 -11 82 -16 19 -5 47 -9 63 -9 25 0 27 -3 21 -27
-3 -16 -8 -35 -11 -43 -3 -8 -9 -103 -14 -210 -4 -107 -13 -231 -20 -275 -7
-44 -12 -187 -13 -317 l-1 -238 -55 0 c-30 0 -72 -5 -93 -11 -31 -8 -38 -14
-35 -32 6 -42 119 -59 244 -36 42 8 83 8 144 0 49 -6 121 -7 170 -3 72 6 85
10 88 26 6 27 -10 33 -120 46 -54 7 -98 13 -98 14 0 2 7 51 15 111 10 71 17
220 20 442 2 195 9 359 16 394 6 32 9 78 7 102 l-5 43 66 12 c95 18 166 42
197 67 44 35 7 59 -53 35z"/>
<path d="M6948 5043 c-32 -4 -42 -11 -63 -48 -34 -58 -40 -80 -67 -258 -18
-120 -22 -196 -23 -362 0 -189 2 -220 24 -309 31 -123 71 -181 152 -216 121
-52 210 -32 272 61 19 30 49 89 67 133 17 43 39 94 49 114 l18 35 6 -89 c10
-163 65 -255 161 -268 96 -12 169 28 200 108 25 64 19 90 -21 94 -33 3 -35 1
-48 -65 -4 -18 -11 -33 -16 -33 -18 0 -24 61 -24 260 0 156 6 250 24 395 29
228 24 269 -42 368 -41 61 -65 75 -104 60 -33 -13 -83 -210 -107 -423 -10 -92
-22 -146 -45 -205 -52 -134 -155 -336 -180 -356 -34 -27 -59 -24 -68 9 -13 45
-8 566 6 728 8 83 11 163 7 177 -8 32 -75 86 -113 91 -15 2 -45 1 -65 -1z"/>
<path d="M3975 4996 c-100 -49 -147 -86 -199 -159 -60 -84 -101 -200 -121
-337 -20 -147 -19 -238 5 -336 26 -112 52 -176 95 -239 31 -45 46 -56 103 -79
70 -28 148 -43 194 -38 28 3 139 100 152 132 4 11 8 12 12 3 29 -63 98 -123
139 -123 13 0 32 8 44 18 20 16 20 19 5 61 -13 38 -14 79 -8 269 l7 225 -85
-7 c-50 -4 -114 -2 -157 5 -83 12 -107 3 -77 -30 11 -12 41 -22 88 -29 38 -6
72 -13 75 -16 10 -10 -50 -243 -73 -281 -43 -73 -76 -104 -114 -107 l-34 -3
-35 95 -34 95 0 240 c-1 204 3 258 21 362 28 152 31 162 77 202 47 41 81 54
122 46 66 -12 78 -70 41 -193 -23 -78 -41 -90 -42 -26 -1 32 -5 40 -22 42 -35
5 -58 -73 -34 -118 5 -10 25 -24 45 -30 29 -10 41 -8 79 9 39 17 49 28 76 84
36 76 38 124 9 185 -27 55 -78 88 -149 96 -30 4 -73 9 -95 12 -32 4 -54 -2
-110 -30z"/>
</g>
</svg>
